<svg id="Capa_1" enable-background="new 0 0 512 512" height="512" viewBox="0 0 512 512" width="512" xmlns="http://www.w3.org/2000/svg"><g><g><circle cx="256" cy="256" fill="#f97c15" r="256"/><path d="m512 256c0 141.38-114.62 256-256 256-64 0-122.52-23.49-167.4-62.31 36.3 19.75 77.92 30.97 122.16 30.97 141.39 0 256-114.62 256-256 0-77.37-34.31-146.71-88.55-193.65 79.7 43.38 133.79 127.87 133.79 224.99z" fill="#e86300"/><circle cx="256" cy="256" fill="#ffc751" r="204.059"/><path d="m407.277 119.052c-4.538-5.009-9.32-9.792-14.33-14.33l-126.814 126.816v-179.346c-3.357-.164-6.735-.252-10.133-.252s-6.775.087-10.133.252v179.346l-126.814-126.815c-5.009 4.538-9.792 9.32-14.33 14.33l126.815 126.815h-179.346c-.164 3.357-.252 6.735-.252 10.133s.087 6.775.252 10.133h179.346l-126.815 126.814c4.538 5.009 9.32 9.792 14.33 14.33l126.815-126.815v179.346c3.357.164 6.735.252 10.133.252s6.775-.087 10.133-.252v-179.347l126.815 126.815c5.009-4.538 9.792-9.32 14.33-14.33l-126.817-126.814h179.346c.164-3.357.252-6.735.252-10.133s-.087-6.775-.252-10.133h-179.346z" fill="#ff993a"/><g fill="#ffe059"><path d="m208.29 57.55v76.59c0 4.65-1.88 8.85-4.93 11.89-3.04 3.05-7.25 4.93-11.89 4.93-9.29 0-16.83-7.53-16.83-16.82v-6.36c0-4.51-1.83-8.59-4.78-11.55-2.96-2.95-7.04-4.78-11.55-4.78-9.02 0-16.34 7.31-16.34 16.33v71.79c0 5.52-2.24 10.53-5.86 14.15-3.62 3.63-8.62 5.87-14.15 5.87-11.06 0-20.02-8.97-20.02-20.02v-77.38c27.41-31.54 64.36-54.58 106.35-64.64z"/><path d="m440.5 168.71v111.86c0 4.65-1.88 8.85-4.93 11.89-3.04 3.05-7.25 4.93-11.89 4.93-9.29 0-16.83-7.53-16.83-16.82v-6.36c0-4.51-1.83-8.59-4.78-11.55-2.96-2.95-7.04-4.78-11.55-4.78-9.02 0-16.34 7.31-16.34 16.33v101.79c0 5.52-2.24 10.53-5.86 14.15-3.62 3.63-8.62 5.87-14.15 5.87-11.06 0-20.02-8.97-20.02-20.02v-183.82l73.13-73.13c13.36 14.75 24.6 31.47 33.22 49.66z"/><path d="m208.291 266.13v120.667c0 11.05-8.96 20.02-20.02 20.02-5.53 0-10.53-2.24-14.15-5.87-3.62-3.62-5.86-8.63-5.86-14.15v-71.79c0-9.02-7.32-16.33-16.34-16.33-4.51 0-8.59 1.83-11.55 4.78-2.95 2.96-4.78 7.04-4.78 11.55v24.36c0 9.29-7.54 16.82-16.83 16.82-4.64 0-8.85-1.88-11.89-4.93-3.05-3.04-4.93-7.24-4.93-11.89v-73.237z"/></g></g><g><path d="m0 256c0 51.261 15.069 99 41.018 139.033 8.909 13.744 28.154 15.902 39.777 4.362.123-.123.247-.245.37-.368 8.64-8.578 10.065-22.03 3.446-32.249-20.666-31.901-32.671-69.936-32.671-110.778 0-101.781 74.516-186.154 171.97-201.547 12.637-1.996 21.962-12.855 21.962-25.649 0-16.013-14.341-28.131-30.158-25.631-122.24 19.324-215.714 125.156-215.714 252.827z" fill="#ff993a"/></g><g><g><g><path d="m48.403 143.579.001.001c11.415 11.415 30.447 9.814 39.627-3.465 22.15-32.043 53.231-57.439 89.647-72.589 9.747-4.055 16.168-13.488 16.168-24.045 0-18.483-18.785-31.1-35.857-24.018-45.661 18.94-84.652 50.716-112.475 90.825-7.192 10.366-6.033 24.369 2.889 33.291z" fill="#ffaf40"/></g></g></g><g><circle cx="283.798" cy="117.58" fill="#ef4343" r="44.351"/><g><circle cx="275.379" cy="109.161" fill="#f75e5e" r="32.445"/></g></g><g><circle cx="268.221" cy="387.232" fill="#ef4343" r="43.923"/><g><circle cx="259.884" cy="378.895" fill="#f75e5e" r="32.132"/></g></g><g><circle cx="163.453" cy="196.58" fill="#ef4343" r="43.923"/><g><circle cx="155.116" cy="188.242" fill="#f75e5e" r="32.132"/></g></g><g><circle cx="392.022" cy="195.128" fill="#ef4343" r="24.464"/><g><circle cx="387.379" cy="190.484" fill="#f75e5e" r="17.897"/></g></g><g><circle cx="343.043" cy="331.053" fill="#ef4343" r="24.464"/><g><circle cx="338.399" cy="326.41" fill="#f75e5e" r="17.897"/></g></g><g><circle cx="293.842" cy="230.502" fill="#ef4343" r="24.464"/><g><circle cx="289.198" cy="225.858" fill="#f75e5e" r="17.897"/></g></g><g><circle cx="204.677" cy="322.629" fill="#ef4343" r="24.464"/><g><circle cx="200.033" cy="317.986" fill="#f75e5e" r="17.897"/></g></g><g><circle cx="430.632" cy="331.053" fill="#ef4343" r="31.221"/><g><circle cx="424.706" cy="325.127" fill="#f75e5e" r="22.84"/></g></g><g><circle cx="174.024" cy="88.533" fill="#ef4343" r="31.221"/><g><circle cx="168.097" cy="82.607" fill="#f75e5e" r="22.84"/></g></g><g><circle cx="108.298" cy="286.3" fill="#ef4343" r="31.221"/><g><circle cx="102.372" cy="280.374" fill="#f75e5e" r="22.84"/></g></g></g></svg>